<svg xmlns="http://www.w3.org/2000/svg" viewBox="0 0 1000 1000">
  <path fill="#000229" d="M494.6 696.3c-9.5-59.6-75-94.3-128.6-65.7a88.3 88.3 0 0 0-17.8 145c44.7 40.3 118 23.6 140.2-31.6 48.8-101.4 96.5-203.3 145.5-304.5 70-135.6 142.1-270.2 212.5-405.6 1.9-3.8 4.2-5.4 8.4-5.1 3.8.3 7.6.1 11.9.1.2 2.4.5 4.3.5 6.1l.1 186.9c0 3.5-1.1 6.2-2.9 9a216345.2 216345.2 0 0 1-351 538.9c-42.7 74.7-149.3 83.8-202.7 15.6-54.6-69.3-21.2-171.9 64.2-194.2 56.1-15.7 109.6 9 138.9 58.9a6 6 0 0 1 .5 6.4c-5.9 12.2-11.5 24.6-17.3 36.8-.5.9-1.3 1.6-2.4 3z"/>
  <path fill="#710F32" d="M521.6 639.2c-65.5-103.9-223.8-75.4-246.9 45.6-24.4 136 148 216.3 235.8 109.2 80.8-118 158.6-238.3 238.1-357.2 39-60.3 76.4-121.7 114.7-182.4a8.3 8.3 0 0 1 3.3-3.1c.1 2.1.4 4.3.4 6.4v126.1c0 4.1-1.1 7.2-3.6 10.4-37.5 48-74.9 96.1-112.3 144.3-70.4 90.5-140.5 181.2-210.7 271.9-73.1 99.4-231.8 84-284.5-27.7-82.3-178.5 148.3-329.2 278.4-182.2 2.9 3.3 3.7 6 1.5 10.1-5.2 9.4-8.6 19.3-14.2 28.6z"/>
  <path fill="#293B09" d="M542.5 595.9c-94.4-113-280.4-66.4-309.1 78.4-33.4 170 172.2 282.1 296.4 161.4C643.4 697.9 753.4 557 866.3 418.6c.4 2.6.8 4 .8 5.4v96.9c0 4.3-1.1 7.5-4.1 10.7-100 106.1-200.2 212-300 318.4-80.1 90.6-227.8 92.7-309.6 3.2C137.5 732.9 209.7 522 376.2 501.6c68.8-10.5 129.9 10.9 179.7 59.7 1.4 1.4 1.6 2.9.8 4.7l-14.2 29.9z"/>
  <path fill="#CC5722" d="M866.1 552.8c1.1 23.5.1 46.2.5 69.6a15 15 0 0 1-5.3 12.4c-78 71.3-155.7 142.9-233.6 214.3l-50.6 46.6C425.3 1036 176 939.4 155.7 737.2c-22.5-195 179.9-340.2 357.4-257a248.3 248.3 0 0 1 61.1 40.1c1.4 1.3 1.9 2.8 1.1 4.6l-12.9 27.6-4.9-4.1a219.3 219.3 0 0 0-99.3-53.6c-103.6-26.3-215.4 30.8-255.2 130-47.4 109.8 8.3 244.3 119.7 288.2 80.5 34.1 179.7 14.8 240.3-48.7 101.2-103.6 201.1-208.6 303.1-311.5z"/>
</svg>
