<svg xmlns="http://www.w3.org/2000/svg" viewBox="0 0 1000 824">
  <path d="M435.3 592.2C347.2 714.7 152 653.8 150.9 501c1.8-162.1 214.6-215.6 293.7-76.7l19.5-42.6C351 233.9 112.3 312.5 111.2 501c1.3 191.5 245.8 268 356.3 114.7l.2.1L969.3 13h-165l-369 579.2z" fill="#710f32"/>
  <path d="M307.8 708.1a207.4 207.4 0 0 1-207.2-207.2c.9-195.7 247-280.4 368.3-130.1l18.2-40C336.5 170 60.1 278 60.5 500.9c-.7 215.2 260.8 327.2 415.7 180.9l.1.1 513.6-418.8V15.7L449.3 652a205.9 205.9 0 0 1-141.5 56.1z" fill="#293b09"/>
  <path d="M307.8 607.4a106.7 106.7 0 0 1-106.5-106.5c4.8-135.7 196.2-143.5 212.6-9.5l25.3-55.5c-69.2-137-275.9-90.7-278 64.9 1.2 145.6 188.9 200.4 268.7 81l355.5-569H643.7L395.1 561.7a106.3 106.3 0 0 1-87.3 45.7z" fill="#202123"/>
  <path d="M443.2 718.8c-169.2 106-392.9-17.7-392-217.9.3-229.2 279.8-343 440.1-179.2l17.6-38.5C320 108.6 11.4 243.5 11.4 500.9c-1 232 258.9 374.9 454.2 250.9l.1.1 524.1-300.5V282.9L443.2 718.8z" fill="#cc5722"/>
</svg>
