<svg xmlns="http://www.w3.org/2000/svg" viewBox="0 0 590 173" preserveAspectRatio="none" stroke="#FFF" stroke-width="4" >
  <path fill="#99226E" d="M308.3 147.9v.4c0 1.4.1 2.7.1 4.1 0 1.5 0 3.1.1 4.6.1.1.4.3.5.4 15.2.1 28.5.1 40.7 0 .9 0 1.8.1 2.4.8.6.7.6 1.6.6 2.4-.1 1.6-.1 3.3 0 5.4 0 .7 0 1.5-.6 2.1-.6.6-1.4.7-2.1.7h-66.6c-.7 0-1.5-.1-2.1-.7-.6-.6-.6-1.4-.6-2 .1-2.3.1-4.7.1-7 0-4.4.1-9 .5-13.5.7-7.5 4.6-12.5 11.5-14.6 1.3-.4 2.8-.6 4.9-.6h7.4c3.8 0 7.7 0 11.5-.2 4.2-.2 6.1-1.9 7-6.2.6-2.8.9-5.7-.2-8.4-1.4-3.3-4.3-5.1-8.8-5.5-3-.3-6.1-.2-9.1-.1h-2.8c-.6 0-1.3-.1-1.9-.6-.5-.5-.6-1.3-.6-1.9V94c0-.8.9-2.2 1.9-2.2h6.4c6.7 0 13.6 0 20.3.4 7.2.4 13.1 3.1 17.6 8 3.5 3.8 5.7 8.8 6.6 15.2 1.1 7.4.9 13.4-.6 18.9-2.2 7.9-6.7 12.3-13.9 13.5-.7.1-1.5.1-2.2.1h-27.6c-.2-.1-.4-.1-.4 0zm277.3-38.5c-.2-4.3-1.5-8-4.1-11-4.2-5-10-7.6-18.2-8.1-4.7-.3-19.2-.3-27.9-.4h-5.2c-.6 0-1.4.1-1.9.6s-.6 1.3-.6 1.8v18.9c0 .5.1 1.2.6 1.7s1.3.6 1.7.6H543.9c2.7 0 5.4 0 8.1.2 4.2.4 6.4 2.9 6.5 7.3V130.3s-.2.1-.7.1c-.8 0-1.7 0-2.5-.1-2.9-.1-6-.2-8.9.2-8.4 1.2-14.5 8.4-14.6 17.1v19c0 .5.1 1.2.6 1.8.5.5 1.3.6 1.8.6h23.6c.6 0 1.3-.1 1.9-.6.5-.5.6-1.3.6-1.9-.1-7.6 0-13.8 0-19.5 0-.5.3-1.2.6-1.5 4.5-4 9.1-8 13.6-12l9.8-8.6c.6-.5 1.2-1.4 1.3-2.4v-.4c.1-4 .2-8.4 0-12.7zm-62.8-5.1c.1.3.2.7.2 1.1v5.4c0 4.2 0 8.5-.6 12.8-1 7.6-5.4 12.5-12.9 14.2l-.1.1s.1 0 .1.1c.8.1 1.8.1 2.7 0 .3 0 1.3-.1 1.8.7.5.7 0 1.6-.2 1.9l-4.7 8.2c-3.9 6.8-7.8 13.7-11.8 20.5-.4.7-1.4 1.3-2.3 1.3h-26.4c-.4 0-1.3 0-1.7-.7-.4-.7 0-1.5.2-1.9 1.5-2.7 3-5.4 4.4-8 2.2-4.1 4.5-8.2 6.7-12.2 1.8-3.2 4.7-5.3 9-6.4.1 0 .2-.1.3-.1-.1-.1-.3-.2-.4-.2-2.3 0-4.5 0-6.8-.1-6.7-.1-13.7-.1-20.5.1-9.1.3-15.2-4.9-16.3-14-.7-6.3-.8-13.4-.1-21.8.6-6.9 7.7-13 15.2-13h48.1c8.1 0 13.9 4.4 15.8 11.9l.3.1zm-26.4-.9v-.2h-17c-5.9.1-8.7 3-8.7 8.8 0 5.1 2.8 7.9 7.8 7.9h17.8v-.1c0-5.8 0-11.2.1-16.4zm-58.3 2.8c.5 5.3.9 10.1.5 14.9-.8 8.9-6 15.2-15.5 18.8-5.1 1.9-10.8 3-17.8 3.3-2.9.1-5.9.3-9.1.3-6.4 0-13.3-.5-20-2.4-7.4-2.1-12.5-5.7-15.6-11.2-2.1-3.8-3.1-8-3-12.6.1-4 .3-8.3 1.2-12.3 1.8-8.6 7.6-13.5 16.2-13.9 8.1-.4 39.2-.4 47.2-.3 6.7.1 11.1 2.6 13.4 7.5 1.4 2.7 2.2 5.4 2.5 7.9zm-33.4 15.2c2.6-.1 6-1.1 7.3-5.2.6-1.8.6-4 .6-6.1v-.7c0-4.4-3.5-7.9-7.9-7.9h-12.8c-3.7 0-6.9 2.6-7.6 6.2-.4 1.9-.4 4-.3 6.2.4 4.5 3.6 7.5 8.3 7.6 2.2 0 10.3 0 12.4-.1z"/>
  <path fill="#C82727" d="M150.7 80.7c.1 5.6.1 11.5 0 17.5 0 .9-.9 2.1-1.9 2.1-1.2 0-2.3.1-3.5.1-8.6 0-15.6-1.3-21.8-4.1-7.5-3.4-12-8.7-13.3-15.8-.5-2.5-.5-5.2-.6-7.7v-1.6c-.1-1.8 0-3.6 0-5.4v-4.4c0-.6 0-1.3.6-1.9.5-.5 1.3-.6 1.8-.6 3.8.1 18.6.1 22.3 0 .5 0 1.2 0 1.8.6.5.5.6 1.3.6 1.8V64c0 1.4 0 2.9-.1 4.4-.4 5.1 2.3 8.4 8 9.7.7.2 1.4.2 2.1.3l2.2.3c.8.1 1.8 1.1 1.8 2zm-34-38.6h13.1c4.3 0 7.7-3.4 7.8-7.7v-3.3c0-5-3.4-8.4-8.5-8.4h-8.7l-1 .1v.1H111c-.3 0-1.1 0-1.7.6-.4.4-.6 1-.6 1.7V34.6c.3 4 3.7 7.4 8 7.5zm184.6-19.3c.5.5 1.2.6 1.6.6h2.6c1.2 0 2.4 0 3.7-.1.9-.1 2-1 2.2-1.8.9-3.8 1.7-7.6 2.6-11.4.5-2.1 1-4.2 1.4-6.4.1-.3.3-1.1-.2-1.8-.5-.6-1.2-.6-1.6-.6h-10.5c-.3 0-1.1 0-1.7.6-.5.5-.6 1.2-.6 1.7v17.6c0 .4 0 1.1.5 1.6zm223.9 22.1c.5.5 1.1.6 1.6.6h.2c1.8-.1 3.8-.1 5.8 0 1.4 0 2.2-.6 2.5-2 1.3-5.9 2.6-11.7 3.9-17.5.1-.4.3-1.2-.3-1.8-.5-.6-1.4-.6-1.7-.6h-10.5c-.7 0-1.3.2-1.7.6-.5.5-.6 1.2-.6 1.8v17.2c.3.4.3 1.2.8 1.7zM102.9 52c0-1-1.3-2.1-2.2-2.1H82.4c-.7 0-1.3.2-1.7.6-.5.5-.6 1.2-.6 1.7v2c0 2.5.1 5.1-.1 7.7-.1 2.4-.4 4.4-.9 6.1-1 3.2-2.6 5.4-4.8 6.5-2.2 1.1-5 1.1-8.3 0-3.1-1.1-4.6-3.3-4.7-6.5v-5.8c0-.5 0-1.2-.5-1.7-.6-.6-1.4-.6-1.6-.6H42.3c-.5 0-1.2.1-1.7.6s-.6 1.2-.5 1.7V67c0 1.9-.7 4.4-3.6 5.3-2.4.7-4.8 1-6.8.9-3.8-.3-5.9-2.4-6.1-6.3l-.1-1.9c-.2-4.2-.4-8.5-.5-12.7 0-1.5-.8-2.2-2.3-2.2H3.2c-.5 0-1.2.1-1.8.6-.5.5-.6 1.2-.6 1.8V66c0 5.6.8 10.6 2.3 15.3 3 9.7 7.9 15.4 15.4 17.8 3 1 6.1 1.5 9.1 1.5 4 0 8.1-.9 12.2-2.6 5.4-2.3 8.7-6.4 9.9-12.3l.1-.1s0 .1.1.1c0 3.3 0 7.6-.2 12 0 .7 0 1.6.6 2.2.6.6 1.5.7 2.2.7H75.3c4.7-.1 8.6-.9 12.1-2.5 8.6-4.1 13.8-11.6 14.8-21.7.6-5.8.5-11.8.5-17.5.2-2.6.2-4.7.2-6.9zm449.2 15.8c-3 0-5.9 0-8.9.1-4.3 0-8.8.1-13.2.1-1 0-2 .1-2.7.8-.7.7-.8 1.7-.7 2.6.1 4.1-2.7 7.2-6.5 7.4-4.6.3-9.4.2-14.8-.1-2.6-.2-4.6-1.8-5.3-4.1-.6-2.1-.8-4.7-.7-7.6.2-2.7 1.8-4.8 4.5-5.8 1.4-.5 2.8-.7 4.4-1 .9-.1 1.8-.3 2.7-.5.7-.2 1.8-1.1 1.7-2-.2-3.3-.5-6.5-.7-9.8-.2-2.2-.3-4.4-.5-6.6-.1-1.5-.9-2.2-2.3-2.1h-5.3c-1.2.1-2.7-.2-3.5-1.9-.9-1.8-1.4-3.9-1.7-5.2-.1-.6-.1-1.2-.1-1.9v-1.8c-.1-.8-1.1-1.9-2-1.9-7.3-.1-14.8-.1-22.2 0-.9 0-2 1-2 1.9-.2 2.4-.3 4.8-.2 7.2.2 5.8 3 10 7.9 12 1.7.7 3.6 1.2 5.4 1.6.6.1 1.2.3 1.9.5.1 0 .2.1.4.1-.1.1-.2.2-.3.2-4.5.1-9.1.1-13.8.1-.6 0-1.3.1-1.9.6-.5.6-.6 1.3-.6 1.9 0 1.6.1 4.9.1 8.4.1 5.4.1 11.5.2 13.5.1 7 1.9 12.2 5.5 16.2.7.8 2.1 1.4 3.2 1.5h13.4c4.8 0 9.8 0 14.7.1 5.7.1 10.1 2.5 13 7.2.5.7 1.5 1.1 2.2 1.1h.4c.4 0 .8-.1 1.1-.1.3 0 .5-.1.8-.1 1.5-.1 2.3-.9 2.3-2.4v-8s.2-.1.6-.1h7c3.8 0 7.7 0 11.6.1 2.4.1 3.8-.8 5-3 2.9-5.5 2.9-11.4 2.5-17.4-.5-1.1-1.9-1.8-2.6-1.8zm2.1-43.8c-.5-.6-1.4-.6-1.7-.6h-10.4c-.3 0-1.1 0-1.7.6-.5.5-.6 1.2-.6 1.7v17.5c0 .9 1 2.1 1.9 2.1 1.1.1 2.2.1 3.3.1 1.1 0 2.2 0 3.3-.1.8 0 1.8-.8 2-1.6l2.7-12c.4-2 .9-3.9 1.3-5.9.2-.3.4-1.1-.1-1.8zm-88.8 40.1v-1h-.1V51.9c0-.6-.1-1.4-.7-2-.6-.6-1.5-.7-2.1-.7-6.2.1-13 .2-20.6.1-.6 0-1.4.1-1.9.6-.6.6-.6 1.3-.6 2v19.5c0 3.9-2.8 7-6.4 7.3-4 .3-8 .2-11.9.1-5.3-.2-8-3-8-8.4V52c0-.6-.1-1.4-.6-2-.6-.6-1.3-.6-2-.6-6 0-13.2.1-20.5 0-.6 0-1.6.1-2.2.7-.6.6-.7 1.5-.7 2.2 0 3-.1 5.9-.1 8.9-.1 4.9-.2 10-.1 15 0 4.5 1.2 8.7 3.5 12.5.8 1.4 1.9 2 3.4 2h4.6c8.2 0 16.7 0 25.1.2 6 .2 10.3 2.9 12.7 8.1.3.7 1.3 1.3 2.2 1.3h.2c1.9-.2 3.9-.6 6-1.1.8-.2 1.6-.7 2.2-1.3 3.1-3.4 6.9-5.3 11.5-5.8.8-.1 1.5-.6 1.9-1 3.1-3.4 4.8-7.1 5.1-11 .2-3.7.2-7.5.1-11.2.1-1.6 0-3.2 0-4.8zM239 73c.2 4.7.2 10.8-2.4 16.7-2.3 5.4-6.8 8.5-13.3 9.4-4.5.6-9.4 1-15.4 1.2-5.8.2-10.6.5-15.1 2.7-4.8 2.4-7 5.8-6.8 10.6.1 2.4.1 4.8.1 7.2v4.4c0 .5 0 1.2-.6 1.7-.5.5-1.2.6-1.7.6h-22.2c-.7 0-2.2-.7-2.2-1.7 0-1.1 0-2.2-.1-3.3-.1-3.2-.1-6.6.2-9.9.8-6.8 6.2-9.7 10.3-11.2.4-.2.8-.3 1.2-.4.4-.1.9-.2 1.2-.4l.2-.2c0-.1-.1-.2-.1-.2-6.7-1.8-11.1-6.4-13.3-13.8-1-3.5-1.6-7.4-1.7-11.6-.2-5.1-.1-10.4-.1-15.4v-8.2c0-.6.1-1.4.6-1.9s1.3-.6 1.9-.6h12.6c12.4 0 29.3 0 34.8.1 8.5.3 15.1 1.9 20.8 5.1 7 3.8 10.7 10.3 11.1 19.1zm-54.6 16.2v.3h20.3c4-.1 7.3-3 7.8-6.9.1-1 .1-1.9.1-3v-1.1c0-5.1-3.3-8.5-8.3-8.6-4.2-.1-8.4-.1-12.5 0h-7.5v.2c.2 6.5.2 12.9.1 19.1zm194.9-31.3c3 8.4 3.5 16.9 1.4 25.3-.3 1.2-.9 2.3-1.4 3.4-1 2-2.5 4.1-6 4.5-5 .6-9 2.9-11.7 6.8-.4.6-1.2 1.1-1.8 1.2l-11.5 1.5h-.2c-.7 0-1.4-.3-1.9-.8-4.7-4.8-10.8-7.4-18.4-7.9-6.4-.4-13-.4-19.4-.4H303c-.8 0-1.7-.1-2.3-.7-.6-.6-.7-1.5-.7-2.2.1-10.9.2-22.6.2-36.9 0-.6.1-1.4.7-2 .6-.6 1.3-.6 2.1-.6h37.1c6.3 0 16 0 22 .1 2.5 0 4.9.2 7.1.6 5 .8 8.5 3.6 10.1 8.1zm-26.1 4.3a8.55 8.55 0 0 0-6-2.4c-1.5 0-5.1 0-9 .1-4.5.1-9.2.1-11.1.1h-.4v.4c0 1.5 0 3.1-.1 4.6 0 2.1-.1 4.2-.1 6.3 0 4.6 3.5 8.1 8.2 8.1h12.6c3.6 0 6.5-2.1 7.5-5.2.5-1.7.6-3.7.6-5.6v-.5c.1-2.3-.7-4.4-2.2-5.9zm-58.5 17c-.5-.5-1.2-.6-1.8-.6-.8 0-1.7 0-2.5.1-2.4.1-4.9.1-7.2-.1-3.3-.3-6.2-1-8.7-1.9-3.7-1.4-5.4-4-5.1-8.3.4-5.6 3-8.1 8.6-8.1h1.3c1.2 0 2.4 0 3.7-.1.8-.1 2-1.1 2-2 .1-5.4.1-11 0-16.6 0-.9-1.1-1.9-2-2-1.1-.1-2.3-.1-3.3 0h-2c-1.9 0-4.4-.6-5.2-3.4-.7-2.3-1.1-4.7-.9-6.9.2-3.7 2.8-6 6.8-5.9 2.7 0 5.5.1 8.2.1h6.3c.5 0 1.2 0 1.8-.6.5-.5.6-1.2.6-1.7V3.7c0-.5-.1-1.2-.6-1.7s-1.2-.6-1.7-.6h-4.9c-3.1 0-6.3-.1-9.5.1-5.7.4-10.3 1.1-14.4 2.1-7.4 1.8-12.7 5.5-15.9 11-4 6.9-4.4 14.7-1.3 24 2 5.8 6.1 9.4 11.9 10.5 0 0 0 .1.1.1-4.3.1-8.4.3-12.6.2-.8 0-1.7.1-2.3.7-.6.6-.7 1.5-.6 2.2.1 2.8.1 5.6.1 8.3V73.2c.1 7.4 1.9 13 5.7 17.4 5.2 6.1 12.6 9.5 21.8 9.9 3.1.2 6.2.2 9.3.2H293c.5 0 1.2-.1 1.7-.6s.6-1.2.6-1.7V80.9c0-.3 0-1.1-.6-1.7z"/>
</svg>
