<svg xmlns="http://www.w3.org/2000/svg" viewBox="0 0 374.5 27.7">
  <path fill="#cf3551" d="M4.8 5.6v16.1H2V5.6h2.8zm4 5.9h2.7v.9a4 4 0 0 1 6 .3c2.4-2.7 8-1.7 7.5 2.7v6.3h-2.8V16c0-1.6-.2-2.6-1.8-2.7-1.8 0-2.1 1.3-2.2 3.1v5.2h-2.8V16c0-1.8-.6-2.7-1.8-2.7-1.8 0-2.2 1.3-2.2 3.1v5.2H8.8V11.5zm22.8 15.7h-2.7V11.5h2.7v1.1c3.4-3.1 9.5-.7 9.3 4 .2 4.7-6 7-9.3 3.9v6.7zm6.5-10.6c.2-4.3-6.8-4.4-6.7-.1-.1 4.4 6.8 4.4 6.7.1zm5.7-5.1h2.7v.9c1.5-1.4 3.2-1.5 5-.6L50.4 14c-1.9-1.1-3.9-.2-3.8 2.4v5.3h-2.7V11.5zm8.6 5c.1-7 12.7-7 12.7.1s-12.8 7.1-12.7-.1zm2.8 0c-.3 4.4 7.3 4.4 7.1.1.2-4.3-7.2-4.3-7.1-.1zm13.8-5 3.1 5.7 3.1-5.7h3.1L72 22.3l-6.1-10.8H69zm21.4 5.6h-8.5c.3 3.3 4.8 3.6 6.3.8l2.3 1.1c-4.7 6.9-15.8.8-9.9-6.3 3.6-3.2 10.6-1.1 9.8 4.4zm-2.8-1.9c-.6-2.5-4.8-2.5-5.5 0h5.5zm13.5-3.7h2.7v.9c1.5-1.4 3.2-1.5 5-.6l-1.3 2.1c-1.9-1.1-3.9-.2-3.8 2.4v5.3H101V11.5zm20 5.6h-8.5c.3 3.3 4.8 3.6 6.3.8l2.3 1.1c-4.7 6.9-15.8.8-9.9-6.3 3.6-3.2 10.6-1.1 9.8 4.4zm-2.8-1.9c-.6-2.5-4.8-2.5-5.5 0h5.5zm14.6-3.7h2.8v10.1h-2.8v-1.1c-3.5 3-9.5.7-9.3-4-.2-4.7 6-7 9.3-3.9v-1.1zm-6.5 5c-.2 4.4 6.8 4.4 6.7.1.1-4.3-6.8-4.3-6.7-.1zm22-4.6V15c-2-2.7-6.9-2.1-7 1.5 0 3.7 5 4.3 7 1.5v3.1c-3.8 1.9-9.8.1-9.8-4.6-.1-4.5 6-6.5 9.8-4.6zm5.4 1.8v8h-2.7v-8h-1.2v-2.2h1.2V7.8h2.7v3.7h2.1v2.2h-2.1zm3.6-6.4c0-2 3.6-2 3.6 0s-3.6 2-3.6 0zm3.2 4.2v10.1h-2.7V11.5h2.7zm2.9 5c.1-7 12.7-7 12.7.1s-12.8 7.1-12.7-.1zm2.8 0c-.3 4.4 7.3 4.4 7.1.1.2-4.3-7.2-4.3-7.1-.1zm12.8-5h2.8v.9c1.7-1.6 4.9-1.6 6.5-.1 1.7 1.3.8 7.3 1 9.3h-2.8c-.1-1.4.4-6.7-.5-7.7-.6-.9-3.1-.8-3.7.2-.9 1.1-.4 6-.6 7.6H179V11.5zm24.2 2.2v8h-2.7v-8h-1.2v-2.2h1.2V7.8h2.7v3.7h2.1v2.2h-2.1zm3.6-6.4c0-2 3.6-2 3.6 0s-3.6 2-3.6 0zm3.2 4.2v10.1h-2.7V11.5h2.7zm3.4 0h2.7v.9a4 4 0 0 1 6 .3c2.4-2.7 8-1.7 7.5 2.7v6.3h-2.8V16c0-1.6-.2-2.6-1.8-2.7-1.8 0-2.1 1.3-2.2 3.1v5.2h-2.8V16c0-1.8-.6-2.7-1.8-2.7-1.8 0-2.2 1.3-2.2 3.1v5.2h-2.7V11.5zm30.6 5.6h-8.5c.3 3.3 4.8 3.6 6.3.8l2.3 1.1c-4.7 6.9-15.8.8-9.9-6.3 3.6-3.2 10.6-1.1 9.8 4.4zm-2.8-1.9c-.5-2.5-4.8-2.5-5.5 0h5.5zm6.5 5.3c0-1.9 3.4-1.9 3.4 0s-3.4 1.9-3.4 0zm.4-2.4V5.6h2.8v12.5h-2.8zm92-7.3h-4.8v9.4c0 3.1 3.3 5.7 7.3 5.7 4.1 0 7.6-2.7 7.6-5.7v-9.4h-4.8v8.5c0 1.4-1.2 2.5-2.7 2.5a2.6 2.6 0 0 1-2.7-2.6v-8.4zM264 5.6v19.6h-5V1.6h9c8.3.1 9.8 11.8 1.7 13.8l6.9 9.9h-5.9l-5-7.7V12h1.2c4.4 0 4.4-6.1.1-6.2-.1-.2-3-.2-3-.2zm45.9 19.6V.4h-4.7v11.7c-4.4-4.4-11.9-.6-11.7 5.8-.3 6.3 7.5 10.4 11.7 5.7v1.6h4.7zm-8.1-3.6c-4.5-.1-4.5-7.5 0-7.6 4.6.1 4.5 7.5 0 7.6m27.9-9.3a6.1 6.1 0 0 0 .4-8.8c-2.2-2.9-10.4-1.8-13.8-2v23.6h10.4c7.1.1 10.3-9.8 3-12.8m-4 8.8h-4.5V5.8h3.2c3.4 0 3.3 4.9 0 5h-1.7v4.3h3.1c3.7 0 3.8 5.9-.1 6m-44.9-5c.1-3.8 5.7-3.8 5.7 0h-5.7zm10.4 2.7c1.3-11.5-15.1-11.7-15.3-1-.1 8.3 11.2 10.7 15 4.1l-3.8-1.8c-1.3 2.9-6.2 2-6.2-1.3h10.3zM352.6.4h4.7v24.7h-4.7V.4zm8 0h4.7v24.7h-4.7V.4zm9.6-.1c2.5 0 2.5 3.8 0 3.8s-2.5-3.8 0-3.8m2.3 1.9c0-2.9-4.5-2.9-4.5 0s4.5 2.9 4.5 0m-1.7-.5c0 .5-.7.4-1.1.4v-.8l.9.1c.2 0 .2.1.2.3m-1.4-.7v2.4h.4v-1c.8-.1 1.1.1 1 1h.4l-.1-.9-.4-.2c.7 0 .8-1 .2-1.2-.3-.2-1.2-.1-1.5-.1z"/>
</svg>